<svg viewBox="0 0 256 256" version="1.1" xmlns="http://www.w3.org/2000/svg" xmlns:xlink="http://www.w3.org/1999/xlink"><g id="Page-1" stroke="none" stroke-width="1" fill="none" fill-rule="evenodd"><g id="broken-clouds" fill="#FFFFFF"><path d="M31.395904,177 L19.3055184,177 C17.1660871,171.067516 16,164.669935 16,158 C16,127.072054 41.072054,102 72,102 C75.9956013,102 79.8934664,102.418458 83.6521611,103.21394 C85.5570273,98.3993182 87.9100146,93.8108599 90.6596882,89.5 L37.6527592,89.5 C36.5830435,86.5337581 36,83.3349676 36,80 C36,64.536027 48.536027,52 64,52 C65.9978006,52 67.9467332,52.2092291 69.8260805,52.6069701 C75.7599929,37.6087804 90.3910897,27 107.5,27 C124.810929,27 139.585185,37.860793 145.380471,53.1400843 C149.808442,52.3903756 154.358633,52 159,52 C203.735065,52 240,88.2649353 240,133 C240,149.222308 235.231124,164.330785 227.018803,177 L215.421987,177 L31.395904,177 Z M217.676775,161 C221.730322,152.520651 224,143.025381 224,133 C224,97.1014913 194.898509,68 159,68 C125.837108,68 98.4747822,92.8351746 94.4971137,124.921432 C88.0871427,120.553478 80.3417698,118 72,118 C49.90861,118 32,135.90861 32,158 C32,159.009165 32.0373714,160.009601 32.1108059,161 L217.676775,161 Z M96.4770578,81.5 C106.933011,68.820644 121.171187,59.3763741 137.464762,54.8940115 C132.541567,43.2056057 120.979045,35 107.5,35 C90.9185541,35 77.2373911,47.4175873 75.2485569,63.460716 C72.0435691,61.2767385 68.1708837,60 64,60 C52.954305,60 44,68.954305 44,80 C44,80.5045824 44.0186857,81.0048004 44.0554029,81.5 L96.4770578,81.5 Z" id="Combined-Shape"></path></g></g></svg>