<svg viewBox="0 0 256 256" version="1.1" xmlns="http://www.w3.org/2000/svg" xmlns:xlink="http://www.w3.org/1999/xlink"><g id="Page-1" stroke="none" stroke-width="1" fill="none" fill-rule="evenodd"><g id="clear-sky" fill="#FFFFFF"><path d="M128,192 C92.653776,192 64,163.346224 64,128 C64,92.653776 92.653776,64 128,64 C163.346224,64 192,92.653776 192,128 C192,163.346224 163.346224,192 128,192 Z M128,176 C154.509668,176 176,154.509668 176,128 C176,101.490332 154.509668,80 128,80 C101.490332,80 80,101.490332 80,128 C80,154.509668 101.490332,176 128,176 Z" id="Combined-Shape"></path><rect id="Rectangle-3" x="124" y="16" width="8" height="32"></rect><rect id="Rectangle-3-Copy" x="124" y="208" width="8" height="32"></rect><rect id="Rectangle-3" transform="translate(60.117749, 60.117749) rotate(-45.000000) translate(-60.117749, -60.117749) " x="56.117749" y="44.117749" width="8" height="32"></rect><rect id="Rectangle-3-Copy" transform="translate(195.882251, 195.882251) rotate(-45.000000) translate(-195.882251, -195.882251) " x="191.882251" y="179.882251" width="8" height="32"></rect><rect id="Rectangle-3" transform="translate(32.000000, 128.000000) rotate(-90.000000) translate(-32.000000, -128.000000) " x="28" y="112" width="8" height="32"></rect><rect id="Rectangle-3-Copy" transform="translate(224.000000, 128.000000) rotate(-90.000000) translate(-224.000000, -128.000000) " x="220" y="112" width="8" height="32"></rect><rect id="Rectangle-3" transform="translate(60.117749, 195.882251) rotate(-135.000000) translate(-60.117749, -195.882251) " x="56.117749" y="179.882251" width="8" height="32"></rect><rect id="Rectangle-3-Copy" transform="translate(195.882251, 60.117749) rotate(-135.000000) translate(-195.882251, -60.117749) " x="191.882251" y="44.117749" width="8" height="32"></rect></g></g></svg>