<svg viewBox="0 0 256 256" version="1.1" xmlns="http://www.w3.org/2000/svg" xmlns:xlink="http://www.w3.org/1999/xlink"><g id="Page-1" stroke="none" stroke-width="1" fill="none" fill-rule="evenodd"><g id="clouds" fill="#FFFFFF"><path d="M217.676775,161 C221.730322,152.520651 224,143.025381 224,133 C224,97.1014913 194.898509,68 159,68 C125.837108,68 98.4747822,92.8351746 94.4971137,124.921432 C88.0871427,120.553478 80.3417698,118 72,118 C49.90861,118 32,135.90861 32,158 C32,159.009165 32.0373714,160.009601 32.1108059,161 L217.676775,161 Z M31.395904,177 L19.3055184,177 C17.1660871,171.067516 16,164.669935 16,158 C16,127.072054 41.072054,102 72,102 C75.9956013,102 79.8934664,102.418458 83.6521611,103.21394 C95.5199857,73.2175608 124.782179,52 159,52 C203.735065,52 240,88.2649353 240,133 C240,149.222308 235.231124,164.330785 227.018803,177 L215.421987,177 L31.395904,177 Z" id="Combined-Shape"></path></g></g></svg>