<svg viewBox="0 0 256 256" version="1.1" xmlns="http://www.w3.org/2000/svg" xmlns:xlink="http://www.w3.org/1999/xlink"><g id="Page-1" stroke="none" stroke-width="1" fill="none" fill-rule="evenodd"><g id="few-clouds" fill="#FFFFFF"><path d="M217.676775,161 C221.730322,152.520651 224,143.025381 224,133 C224,97.1014913 194.898509,68 159,68 C125.837108,68 98.4747822,92.8351746 94.4971137,124.921432 C88.0871427,120.553478 80.3417698,118 72,118 C49.90861,118 32,135.90861 32,158 C32,159.009165 32.0373714,160.009601 32.1108059,161 L217.676775,161 Z M31.395904,177 L19.3055184,177 C17.1660871,171.067516 16,164.669935 16,158 C16,136.079404 28.5948345,117.10049 46.942702,107.905058 C42.5966581,102.441369 40,95.5239253 40,88 C40,70.326888 54.326888,56 72,56 C85.3684281,56 96.8222051,64.1975957 101.608739,75.8401949 C116.275898,61.1140161 136.573603,52 159,52 C203.735065,52 240,88.2649353 240,133 C240,149.222308 235.231124,164.330785 227.018803,177 L215.421987,177 L31.395904,177 Z M54.7652393,104.702207 C60.1946227,102.947817 65.9866241,102 72,102 C75.9956013,102 79.8934664,102.418458 83.6521611,103.21394 C86.581707,95.8094013 90.5711581,88.9397892 95.4334187,82.7921999 C93.0548081,72.0412624 83.4664728,64 72,64 C58.745166,64 48,74.745166 48,88 C48,94.4919704 50.5776124,100.381907 54.7652355,104.702209 Z" id="Combined-Shape"></path><rect id="Rectangle-3" x="68" y="32" width="8" height="16"></rect><rect id="Rectangle-3" transform="translate(38.058875, 54.058875) rotate(-45.000000) translate(-38.058875, -54.058875) " x="34.0588745" y="46.0588745" width="8" height="16"></rect><rect id="Rectangle-3" transform="translate(24.000000, 88.000000) rotate(-90.000000) translate(-24.000000, -88.000000) " x="20" y="80" width="8" height="16"></rect><rect id="Rectangle-3-Copy" transform="translate(105.941125, 54.058875) rotate(-135.000000) translate(-105.941125, -54.058875) " x="101.941125" y="46.0588745" width="8" height="16"></rect></g></g></svg>