<svg viewBox="0 0 256 256" version="1.1" xmlns="http://www.w3.org/2000/svg" xmlns:xlink="http://www.w3.org/1999/xlink"><g id="Page-1" stroke="none" stroke-width="1" fill="none" fill-rule="evenodd"><g id="mist" fill="#FFFFFF"><rect id="Rectangle-2-Copy-2" transform="translate(88.000000, 80.000000) rotate(-90.000000) translate(-88.000000, -80.000000) " x="80" y="8" width="16" height="144"></rect><rect id="Rectangle-2-Copy-4" transform="translate(24.000000, 112.000000) rotate(-90.000000) translate(-24.000000, -112.000000) " x="16" y="104" width="16" height="16"></rect><rect id="Rectangle-2-Copy-3" transform="translate(208.000000, 81.000000) rotate(-90.000000) translate(-208.000000, -81.000000) " x="200" y="49" width="16" height="64"></rect><rect id="Rectangle-2-Copy-5" transform="translate(144.000000, 113.000000) rotate(-90.000000) translate(-144.000000, -113.000000) " x="136" y="17" width="16" height="192"></rect><rect id="Rectangle-2-Copy-4" transform="translate(69.000000, 145.000000) rotate(-90.000000) translate(-69.000000, -145.000000) " x="61" y="92" width="16" height="106"></rect><polygon id="Rectangle-2-Copy-5" transform="translate(189.000000, 146.000000) rotate(-90.000000) translate(-189.000000, -146.000000) " points="181 95 197 95 197 197 181 197"></polygon><rect id="Rectangle-2-Copy-4" transform="translate(49.000000, 177.000000) rotate(-90.000000) translate(-49.000000, -177.000000) " x="41" y="144" width="16" height="66"></rect><polygon id="Rectangle-2-Copy-5" transform="translate(169.000000, 178.000000) rotate(-90.000000) translate(-169.000000, -178.000000) " points="161 107 177 107 177 249 161 249"></polygon></g></g></svg>