<svg viewBox="0 0 256 256" version="1.1" xmlns="http://www.w3.org/2000/svg" xmlns:xlink="http://www.w3.org/1999/xlink"><g id="Page-1" stroke="none" stroke-width="1" fill="none" fill-rule="evenodd"><g id="snow" fill="#FFFFFF"><path d="M68,161 L32.1108059,161 C32.0373714,160.009601 32,159.009165 32,158 C32,135.90861 49.90861,118 72,118 C80.3417698,118 88.0871427,120.553478 94.4971194,124.921436 C98.4747822,92.8351746 125.837108,68 159,68 C194.898509,68 224,97.1014913 224,133 C224,143.025381 221.730322,152.520651 217.676775,161 L188,161 L188,177 L215.421987,177 L227.018803,177 C235.231124,164.330785 240,149.222308 240,133 C240,88.2649353 203.735065,52 159,52 C124.782179,52 95.5199857,73.2175608 83.6521611,103.21394 C79.8934664,102.418458 75.9956013,102 72,102 C41.072054,102 16,127.072054 16,158 C16,164.669935 17.1660871,171.067516 19.3055184,177 L31.395904,177 L68,177 L68,161 Z" id="Combined-Shape"></path><rect id="Rectangle-3-Copy-2" x="68" y="184" width="8" height="24"></rect><rect id="Rectangle-3-Copy-2" transform="translate(72.000000, 196.000000) rotate(90.000000) translate(-72.000000, -196.000000) " x="68" y="184" width="8" height="24"></rect><rect id="Rectangle-3-Copy-2" x="96" y="152" width="8" height="24"></rect><rect id="Rectangle-3-Copy-2" transform="translate(100.000000, 164.000000) rotate(90.000000) translate(-100.000000, -164.000000) " x="96" y="152" width="8" height="24"></rect><rect id="Rectangle-3-Copy-2" x="96" y="216" width="8" height="24"></rect><rect id="Rectangle-3-Copy-2" transform="translate(100.000000, 228.000000) rotate(90.000000) translate(-100.000000, -228.000000) " x="96" y="216" width="8" height="24"></rect><rect id="Rectangle-3-Copy-2" x="124" y="184" width="8" height="24"></rect><rect id="Rectangle-3-Copy-2" transform="translate(128.000000, 196.000000) rotate(90.000000) translate(-128.000000, -196.000000) " x="124" y="184" width="8" height="24"></rect><rect id="Rectangle-3-Copy-2" x="152" y="152" width="8" height="24"></rect><rect id="Rectangle-3-Copy-2" transform="translate(156.000000, 164.000000) rotate(90.000000) translate(-156.000000, -164.000000) " x="152" y="152" width="8" height="24"></rect><rect id="Rectangle-3-Copy-2" x="152" y="216" width="8" height="24"></rect><rect id="Rectangle-3-Copy-2" transform="translate(156.000000, 228.000000) rotate(90.000000) translate(-156.000000, -228.000000) " x="152" y="216" width="8" height="24"></rect><rect id="Rectangle-3-Copy-2" x="180" y="184" width="8" height="24"></rect><rect id="Rectangle-3-Copy-2" transform="translate(184.000000, 196.000000) rotate(90.000000) translate(-184.000000, -196.000000) " x="180" y="184" width="8" height="24"></rect></g></g></svg>