<svg viewBox="0 0 256 256" version="1.1" xmlns="http://www.w3.org/2000/svg" xmlns:xlink="http://www.w3.org/1999/xlink"><g id="Page-1" stroke="none" stroke-width="1" fill="none" fill-rule="evenodd"><g id="thunderstorm" fill="#FFFFFF"><path d="M94.9772727,161 L32.1108059,161 C32.0373714,160.009601 32,159.009165 32,158 C32,135.90861 49.90861,118 72,118 C80.3417698,118 88.0871427,120.553478 94.4971194,124.921436 C98.4747822,92.8351746 125.837108,68 159,68 C194.898509,68 224,97.1014913 224,133 C224,143.025381 221.730322,152.520651 217.676775,161 L184.977273,161 L178.795455,177 L215.421987,177 L227.018803,177 C235.231124,164.330785 240,149.222308 240,133 C240,88.2649353 203.735065,52 159,52 C124.782179,52 95.5199857,73.2175608 83.6521611,103.21394 C79.8934664,102.418458 75.9956013,102 72,102 C41.072054,102 16,127.072054 16,158 C16,164.669935 17.1660871,171.067516 19.3055184,177 L31.395904,177 L88.7954545,177 L94.9772727,161 Z" id="Combined-Shape"></path><path d="M107.634379,153 L154.443553,153 L145.411455,173.760015 L174.516988,173.760015 L104.634379,239.946227 L120.123855,197.345109 L90,197.345109 L107.634379,153 Z M102.132959,189.18551 L131.062168,189.18551 L121.930225,214.185499 L154.727491,181.406764 L132.985956,181.406764 L141.89088,160.538247 L114.206075,160.538247 L102.132959,189.18551 Z" id="Path"></path><rect id="Rectangle-3-Copy-4" transform="translate(182.000000, 203.856406) rotate(-330.000000) translate(-182.000000, -203.856406) " x="178" y="187.856406" width="8" height="32"></rect><rect id="Rectangle-3-Copy-3" transform="translate(56.000000, 203.856406) rotate(-330.000000) translate(-56.000000, -203.856406) " x="52" y="187.856406" width="8" height="32"></rect></g></g></svg>